<?xml version="1.0" encoding="utf-8"?>
<!-- Generator: Adobe Illustrator 19.2.1, SVG Export Plug-In . SVG Version: 6.00 Build 0)  -->
<svg version="1.1" id="Слой_1" xmlns="http://www.w3.org/2000/svg" xmlns:xlink="http://www.w3.org/1999/xlink" x="0px" y="0px"
	 width="325px" height="57.8px" viewBox="0 0 325 57.8" style="enable-background:new 0 0 325 57.8;" xml:space="preserve">
<style type="text/css">
	.st0{fill:#FFFFFF;}
	.st1{fill:#FFB238;}
</style>
<g>
	<g>
		<path class="st0" d="M121,57.5V41.8h4.7l2.8,10.7l2.8-10.7h4.7v15.7h-2.9V45.2l-3.1,12.3h-3l-3.1-12.3v12.3H121z"/>
		<path class="st0" d="M145.4,57.5v-1.7c-0.4,0.6-1,1.1-1.6,1.4c-0.7,0.3-1.4,0.5-2.1,0.5c-0.8,0-1.4-0.2-2-0.5
			c-0.6-0.3-1-0.8-1.3-1.4c-0.3-0.6-0.4-1.4-0.4-2.5v-7.2h3v5.2c0,1.6,0.1,2.6,0.2,2.9c0.1,0.4,0.3,0.6,0.6,0.9
			c0.3,0.2,0.7,0.3,1.1,0.3c0.5,0,1-0.1,1.4-0.4c0.4-0.3,0.7-0.6,0.8-1c0.1-0.4,0.2-1.4,0.2-3.1v-4.8h3v11.4H145.4z"/>
		<path class="st0" d="M150,57.5V41.8h3v15.7H150z"/>
		<path class="st0" d="M161.3,46.2v2.4h-2.1v4.6c0,0.9,0,1.5,0.1,1.6c0,0.2,0.1,0.3,0.3,0.4c0.1,0.1,0.3,0.2,0.5,0.2
			c0.3,0,0.7-0.1,1.2-0.3l0.3,2.3c-0.7,0.3-1.5,0.4-2.4,0.4c-0.5,0-1-0.1-1.5-0.3c-0.4-0.2-0.8-0.4-0.9-0.7
			c-0.2-0.3-0.3-0.7-0.4-1.2c-0.1-0.3-0.1-1.1-0.1-2.1v-5h-1.4v-2.4h1.4v-2.3l3-1.8v4H161.3z"/>
		<path class="st0" d="M163.4,44.6v-2.8h3v2.8H163.4z M163.4,57.5V46.2h3v11.4H163.4z"/>
		<path class="st0" d="M167.9,46.2h2.8v1.6c1-1.2,2.2-1.8,3.5-1.8c0.7,0,1.4,0.2,1.9,0.4c0.5,0.3,1,0.8,1.3,1.4
			c0.5-0.6,1-1.1,1.6-1.4c0.6-0.3,1.2-0.4,1.8-0.4c0.8,0,1.5,0.2,2.1,0.5c0.6,0.3,1,0.8,1.3,1.5c0.2,0.5,0.3,1.3,0.3,2.4v7.3h-3V51
			c0-1.1-0.1-1.9-0.3-2.2c-0.3-0.4-0.7-0.6-1.3-0.6c-0.4,0-0.8,0.1-1.2,0.4c-0.4,0.3-0.6,0.6-0.8,1.1c-0.2,0.5-0.3,1.3-0.3,2.3v5.5
			h-3v-6.2c0-1.1-0.1-1.8-0.2-2.1c-0.1-0.3-0.3-0.6-0.5-0.7c-0.2-0.2-0.5-0.2-0.9-0.2c-0.5,0-0.9,0.1-1.3,0.4
			c-0.4,0.3-0.6,0.6-0.8,1.1c-0.2,0.5-0.2,1.3-0.2,2.3v5.5h-3V46.2z"/>
		<path class="st0" d="M192.9,53.9l3,0.5c-0.4,1.1-1,1.9-1.8,2.5c-0.8,0.6-1.9,0.9-3.1,0.9c-2,0-3.4-0.6-4.4-1.9
			c-0.7-1-1.1-2.3-1.1-3.9c0-1.9,0.5-3.4,1.5-4.4c1-1.1,2.2-1.6,3.7-1.6c1.7,0,3,0.6,4,1.7c1,1.1,1.4,2.8,1.4,5.1h-7.5
			c0,0.9,0.3,1.6,0.7,2.1c0.5,0.5,1,0.7,1.7,0.7c0.5,0,0.9-0.1,1.2-0.4C192.5,54.9,192.7,54.5,192.9,53.9z M193,50.9
			c0-0.9-0.3-1.5-0.7-2c-0.4-0.5-0.9-0.7-1.6-0.7c-0.7,0-1.2,0.2-1.6,0.7c-0.4,0.5-0.6,1.1-0.6,1.9H193z"/>
		<path class="st0" d="M207.6,57.5h-2.8v-1.7c-0.5,0.7-1,1.1-1.6,1.5c-0.6,0.3-1.3,0.5-1.9,0.5c-1.3,0-2.4-0.5-3.3-1.6
			c-0.9-1.1-1.4-2.5-1.4-4.4c0-1.9,0.4-3.4,1.4-4.4c0.9-1,2.1-1.5,3.4-1.5c1.3,0,2.4,0.5,3.3,1.6v-5.6h3V57.5z M199.5,51.6
			c0,1.2,0.2,2.1,0.5,2.6c0.5,0.8,1.2,1.2,2,1.2c0.7,0,1.3-0.3,1.8-0.9c0.5-0.6,0.7-1.5,0.7-2.6c0-1.3-0.2-2.2-0.7-2.8
			c-0.5-0.6-1.1-0.9-1.8-0.9c-0.7,0-1.3,0.3-1.8,0.8C199.8,49.6,199.5,50.5,199.5,51.6z"/>
		<path class="st0" d="M209.2,44.6v-2.8h3v2.8H209.2z M209.2,57.5V46.2h3v11.4H209.2z"/>
		<path class="st0" d="M216.2,49.6l-2.7-0.5c0.3-1.1,0.8-1.9,1.6-2.4c0.8-0.5,1.9-0.8,3.3-0.8c1.3,0,2.3,0.2,3,0.5
			c0.7,0.3,1.1,0.7,1.4,1.2c0.3,0.5,0.4,1.4,0.4,2.7l0,3.5c0,1,0,1.7,0.1,2.2c0.1,0.5,0.3,1,0.5,1.5h-3c-0.1-0.2-0.2-0.5-0.3-0.9
			c-0.1-0.2-0.1-0.3-0.1-0.3c-0.5,0.5-1.1,0.9-1.6,1.1s-1.2,0.4-1.9,0.4c-1.2,0-2.1-0.3-2.8-0.9c-0.7-0.6-1-1.4-1-2.4
			c0-0.6,0.1-1.2,0.5-1.7c0.3-0.5,0.7-0.9,1.3-1.2c0.6-0.3,1.4-0.5,2.4-0.7c1.4-0.3,2.4-0.5,2.9-0.7v-0.3c0-0.6-0.1-1-0.4-1.2
			c-0.3-0.2-0.8-0.4-1.6-0.4c-0.5,0-0.9,0.1-1.3,0.3C216.7,48.7,216.4,49.1,216.2,49.6z M220.3,52.1c-0.4,0.1-1,0.3-1.8,0.5
			c-0.8,0.2-1.4,0.4-1.6,0.5c-0.4,0.3-0.6,0.6-0.6,1.1c0,0.4,0.2,0.8,0.5,1.1c0.3,0.3,0.7,0.5,1.2,0.5c0.5,0,1.1-0.2,1.6-0.5
			c0.4-0.3,0.6-0.6,0.7-1c0.1-0.3,0.1-0.7,0.1-1.5V52.1z"/>
		<path class="st0" d="M231,57.5V41.8h3.1l6.4,10.5V41.8h2.9v15.7h-3.2l-6.3-10.2v10.2H231z"/>
		<path class="st0" d="M243.9,51.7c0-1,0.3-2,0.7-2.9c0.5-0.9,1.2-1.6,2.1-2.1c0.9-0.5,1.9-0.7,3-0.7c1.7,0,3.1,0.6,4.2,1.7
			c1.1,1.1,1.6,2.5,1.6,4.2c0,1.7-0.6,3.1-1.7,4.3c-1.1,1.1-2.5,1.7-4.2,1.7c-1,0-2-0.2-3-0.7c-0.9-0.5-1.7-1.2-2.1-2.1
			C244.1,54.1,243.9,53,243.9,51.7z M246.9,51.8c0,1.1,0.3,2,0.8,2.6c0.5,0.6,1.2,0.9,2,0.9c0.8,0,1.4-0.3,2-0.9
			c0.5-0.6,0.8-1.5,0.8-2.6c0-1.1-0.3-2-0.8-2.6c-0.5-0.6-1.2-0.9-2-0.9c-0.8,0-1.4,0.3-2,0.9C247.2,49.8,246.9,50.7,246.9,51.8z"/>
		<path class="st0" d="M259.9,57.5h-3V46.2h2.8v1.6c0.5-0.8,0.9-1.3,1.3-1.5c0.4-0.2,0.8-0.4,1.3-0.4c0.7,0,1.3,0.2,2,0.6l-0.9,2.6
			c-0.5-0.3-1-0.5-1.4-0.5c-0.4,0-0.8,0.1-1.1,0.3c-0.3,0.2-0.5,0.7-0.7,1.3c-0.2,0.6-0.3,1.9-0.3,3.8V57.5z"/>
		<path class="st0" d="M274.7,57.5h-2.8v-1.7c-0.5,0.7-1,1.1-1.6,1.5c-0.6,0.3-1.3,0.5-1.9,0.5c-1.3,0-2.4-0.5-3.3-1.6
			c-0.9-1.1-1.4-2.5-1.4-4.4c0-1.9,0.5-3.4,1.4-4.4c0.9-1,2-1.5,3.4-1.5c1.3,0,2.4,0.5,3.3,1.6v-5.6h3V57.5z M266.7,51.6
			c0,1.2,0.2,2.1,0.5,2.6c0.5,0.8,1.2,1.2,2,1.2c0.7,0,1.3-0.3,1.8-0.9c0.5-0.6,0.7-1.5,0.7-2.6c0-1.3-0.2-2.2-0.7-2.8
			c-0.5-0.6-1.1-0.9-1.8-0.9c-0.7,0-1.3,0.3-1.8,0.8C266.9,49.6,266.7,50.5,266.7,51.6z"/>
		<path class="st0" d="M276.8,44.6v-2.8h3v2.8H276.8z M276.8,57.5V46.2h3v11.4H276.8z"/>
		<path class="st0" d="M291.4,49.5l-3,0.5c-0.1-0.6-0.3-1-0.7-1.3c-0.4-0.3-0.8-0.5-1.4-0.5c-0.8,0-1.3,0.3-1.8,0.8
			c-0.4,0.5-0.7,1.4-0.7,2.6c0,1.3,0.2,2.3,0.7,2.9c0.4,0.6,1.1,0.8,1.8,0.8c0.6,0,1-0.2,1.4-0.5c0.4-0.3,0.6-0.9,0.8-1.7l3,0.5
			c-0.3,1.4-0.9,2.4-1.8,3.1c-0.9,0.7-2,1-3.5,1c-1.7,0-3-0.5-4-1.6c-1-1-1.5-2.5-1.5-4.4c0-1.9,0.5-3.3,1.5-4.4c1-1,2.3-1.6,4-1.6
			c1.4,0,2.5,0.3,3.3,0.9C290.5,47.4,291.1,48.3,291.4,49.5z"/>
		<path class="st0" d="M312.7,57.5h-3.4l-1.4-3.6h-6.3l-1.3,3.6H297l6.1-15.7h3.3L312.7,57.5z M306.9,51.3l-2.2-5.8l-2.1,5.8H306.9z
			"/>
		<path class="st0" d="M312.3,52.4l3.1-0.3c0.2,1,0.6,1.8,1.1,2.3c0.6,0.5,1.3,0.7,2.3,0.7c1,0,1.8-0.2,2.3-0.6
			c0.5-0.4,0.8-0.9,0.8-1.5c0-0.4-0.1-0.7-0.3-0.9c-0.2-0.3-0.6-0.5-1.1-0.7c-0.4-0.1-1.2-0.4-2.5-0.7c-1.7-0.4-2.9-0.9-3.6-1.5
			c-1-0.9-1.4-1.9-1.4-3.2c0-0.8,0.2-1.5,0.7-2.2c0.5-0.7,1.1-1.2,2-1.6c0.9-0.4,1.9-0.5,3.1-0.5c2,0,3.5,0.4,4.4,1.3
			c1,0.9,1.5,2,1.6,3.5l-3.2,0.1c-0.1-0.8-0.4-1.4-0.9-1.7c-0.4-0.4-1.1-0.5-2-0.5c-0.9,0-1.6,0.2-2.2,0.6c-0.3,0.2-0.5,0.6-0.5,1
			c0,0.4,0.2,0.7,0.5,0.9c0.4,0.3,1.4,0.7,2.9,1c1.5,0.4,2.7,0.7,3.4,1.1c0.7,0.4,1.3,0.9,1.7,1.6c0.4,0.7,0.6,1.5,0.6,2.5
			c0,0.9-0.3,1.7-0.8,2.5c-0.5,0.8-1.2,1.4-2.1,1.7c-0.9,0.4-2.1,0.6-3.4,0.6c-2,0-3.5-0.5-4.6-1.4
			C313.1,55.5,312.5,54.2,312.3,52.4z"/>
	</g>
	<polygon class="st1" points="44.2,0.1 30.1,20.7 16,0.1 0,0.1 0,56.8 15.4,56.8 15.4,25.5 30.1,45.8 44.8,25.5 44.8,56.8 
		60.2,56.8 60.2,0.1 	"/>
	<polygon class="st0" points="84.4,0 84.4,29.5 63.1,2 63.1,27.2 86.1,56.8 99.9,56.8 99.9,0 	"/>
</g>
</svg>
