<?xml version="1.0" encoding="utf-8"?>
<!-- Generator: Adobe Illustrator 19.2.1, SVG Export Plug-In . SVG Version: 6.00 Build 0)  -->
<svg version="1.1" id="Слой_1" xmlns="http://www.w3.org/2000/svg" xmlns:xlink="http://www.w3.org/1999/xlink" x="0px" y="0px"
	 width="54px" height="54.1px" viewBox="0 0 54 54.1" style="enable-background:new 0 0 54 54.1;" xml:space="preserve">
<style type="text/css">
	.st0{fill:#FFFFFF;}
</style>
<g id="Фигура_3">
	<g>
		<path class="st0" d="M27,0C12.1,0,0,12.1,0,27s12.1,27,27,27s27-12.1,27-27S41.9,0,27,0z M27,52.1c-13.8,0-25-11.2-25-25
			s11.2-25,25-25s25,11.2,25,25S40.8,52.1,27,52.1z M34.5,26.1l-12-9C22.3,17,22.2,17,22,17s-0.3,0-0.5,0.1C21.2,17.3,21,17.6,21,18
			v17.9c0,0.4,0.2,0.7,0.5,0.9s0.7,0.2,1,0l12-9c0.3-0.2,0.5-0.5,0.5-0.9C35,26.6,34.8,26.3,34.5,26.1z"/>
	</g>
</g>
</svg>
