<?xml version="1.0" encoding="utf-8"?>
<!-- Generator: Adobe Illustrator 19.2.1, SVG Export Plug-In . SVG Version: 6.00 Build 0)  -->
<svg version="1.1" id="Слой_1" xmlns="http://www.w3.org/2000/svg" xmlns:xlink="http://www.w3.org/1999/xlink" x="0px" y="0px"
	 width="18px" height="14px" viewBox="0 0 18 14" style="enable-background:new 0 0 18 14;" xml:space="preserve">
<style type="text/css">
	.st0{fill:#323642;}
</style>
<path id="Прямоугольник_7" class="st0" d="M15.9,7l-5.8-5.8c-0.1-0.1-0.1-0.3,0-0.5l0.6-0.6C10.8,0,10.9,0,11,0
	c0.1,0,0.2,0,0.2,0.1l6.6,6.7c0.1,0.1,0.1,0.3,0,0.5l-6.6,6.7C11.2,14,11.1,14,11,14c-0.1,0-0.2,0-0.2-0.1l-0.6-0.6
	c-0.1-0.1-0.1-0.3,0-0.5L15.9,7z M0,6h17v2H0V6z"/>
</svg>
