<?xml version="1.0" encoding="utf-8"?>
<!-- Generator: Adobe Illustrator 19.2.1, SVG Export Plug-In . SVG Version: 6.00 Build 0)  -->
<svg version="1.1" id="Layer_1" xmlns="http://www.w3.org/2000/svg" xmlns:xlink="http://www.w3.org/1999/xlink" x="0px" y="0px"
	 width="80px" height="70.4px" viewBox="0 0 80 70.4" style="enable-background:new 0 0 80 70.4;" xml:space="preserve">
<style type="text/css">
	.st0{fill:none;}
	.st1{fill:#5A5E69;}
	.st2{fill:#323642;}
</style>
<g>
	<circle class="st0" cx="54.4" cy="6.4" r="3.2"/>
	<circle class="st0" cx="63.2" cy="6.4" r="3.2"/>
	<path class="st0" d="M40,53.9c-7,0-12.7,5-13.9,11.7h1.3h0.9h1.5h24C52.7,59,47,53.9,40,53.9z"/>
	<path class="st0" d="M4.8,63.8c0-1.6,1.3-2.8,2.8-2.8h5.1c0.7-2.6,1.7-5,3-7.3l-3.6-3.6c-1.1-1.1-1.1-2.9,0-4l6-6
		c1.1-1.1,2.9-1.1,4,0l3.6,3.6c2.2-1.3,4.7-2.4,7.3-3v-5.1c0-1.6,1.2-2.8,2.8-2.8h8.4c1.6,0,2.8,1.3,2.8,2.8v5.1
		c2.6,0.7,5,1.7,7.3,3l3.6-3.6c1.1-1.1,2.9-1.1,4,0l6,6c1.1,1.1,1.1,2.9,0,4l-3.6,3.6c1.3,2.2,2.4,4.7,3,7.3h5.1
		c1.6,0,2.8,1.2,2.8,2.8v-51H4.8V63.8z"/>
	<circle class="st0" cx="72" cy="6.4" r="3.2"/>
	<path class="st1" d="M72.4,61h-5.1c-0.7-2.6-1.7-5-3-7.3l3.6-3.6c1.1-1.1,1.1-2.9,0-4l-6-6c-1.1-1.1-2.9-1.1-4,0l-3.6,3.6
		c-2.2-1.3-4.7-2.4-7.3-3v-5.1c0-1.6-1.2-2.8-2.8-2.8h-8.4c-1.6,0-2.8,1.3-2.8,2.8v5.1c-2.6,0.7-5,1.7-7.3,3l-3.6-3.6
		c-1.1-1.1-2.9-1.1-4,0l-6,6c-1.1,1.1-1.1,2.9,0,4l3.6,3.6c-1.3,2.2-2.4,4.7-3,7.3H7.6c-1.6,0-2.8,1.2-2.8,2.8v1.8h21.3
		C27.3,59,33,53.9,40,53.9c7,0,12.7,5,13.9,11.7h21.3v-1.8C75.2,62.2,73.9,61,72.4,61z"/>
	<path class="st2" d="M75.2,0H4.8C2.1,0,0,2.1,0,4.8v60.8c0,2.6,2.1,4.8,4.8,4.8h70.4c2.7,0,4.8-2.2,4.8-4.8V4.8
		C80,2.1,77.9,0,75.2,0z M63.2,3.2c1.8,0,3.2,1.4,3.2,3.2c0,1.8-1.4,3.2-3.2,3.2c-1.8,0-3.2-1.4-3.2-3.2C60,4.6,61.4,3.2,63.2,3.2z
		 M54.4,3.2c1.8,0,3.2,1.4,3.2,3.2c0,1.8-1.4,3.2-3.2,3.2c-1.8,0-3.2-1.4-3.2-3.2C51.2,4.6,52.6,3.2,54.4,3.2z M75.2,63.8v1.8H53.9
		h-24h-1.5h-0.9h-1.3H4.8v-1.8v-51h70.4V63.8z M72,9.6c-1.8,0-3.2-1.4-3.2-3.2c0-1.8,1.4-3.2,3.2-3.2c1.8,0,3.2,1.4,3.2,3.2
		C75.2,8.2,73.8,9.6,72,9.6z"/>
</g>
</svg>
