<?xml version="1.0" encoding="utf-8"?>
<!-- Generator: Adobe Illustrator 19.2.1, SVG Export Plug-In . SVG Version: 6.00 Build 0)  -->
<svg version="1.1" id="Layer_1" xmlns="http://www.w3.org/2000/svg" xmlns:xlink="http://www.w3.org/1999/xlink" x="0px" y="0px"
	 width="76.5px" height="80px" viewBox="0 0 76.5 80" style="enable-background:new 0 0 76.5 80;" xml:space="preserve">
<style type="text/css">
	.st0{fill:#5A5E69;}
	.st1{fill:#323642;}
</style>
<g>
	<g>
		<g>
			<path class="st0" d="M74,25.3L72.4,26c-0.5-0.7-1.2-1.4-1.9-1.9l0.7-1.6c0.2-0.5,0-1.1-0.5-1.3L68,20.1c-0.5-0.2-1.1,0-1.3,0.5
				l-0.7,1.6c-0.9-0.1-1.8-0.1-2.7,0l-0.7-1.6c-0.2-0.5-0.8-0.7-1.2-0.5l-2.7,1.1c-0.5,0.2-0.7,0.8-0.5,1.2l0.7,1.6
				c-0.7,0.5-1.4,1.2-1.9,1.9l-1.6-0.7c-0.5-0.2-1.1,0-1.3,0.5l-1.1,2.7c-0.2,0.5,0,1.1,0.5,1.3l1.6,0.7c-0.1,0.9-0.1,1.8,0,2.7
				l-1.6,0.7c-0.5,0.2-0.7,0.8-0.5,1.2l1.1,2.7c0.2,0.5,0.8,0.7,1.3,0.5l1.6-0.7c0.5,0.7,1.2,1.4,1.9,1.9L58.3,41
				c-0.2,0.5,0,1.1,0.5,1.3l2.7,1.1c0.5,0.2,1.1,0,1.3-0.5l0.7-1.6c0.9,0.1,1.8,0.1,2.7,0l0.7,1.6c0.2,0.5,0.8,0.7,1.2,0.5l2.7-1.1
				c0.5-0.2,0.7-0.8,0.5-1.3l-0.7-1.6c0.7-0.5,1.4-1.2,1.9-1.9l1.6,0.7c0.5,0.2,1.1,0,1.3-0.5l1.1-2.7c0.2-0.5,0-1.1-0.5-1.3
				l-1.6-0.7c0.1-0.9,0.1-1.8,0-2.7l1.6-0.7c0.5-0.2,0.7-0.8,0.5-1.2l-1.1-2.7C75.1,25.3,74.5,25.1,74,25.3z M66.6,36.2
				c-2.5,1-5.3-0.1-6.3-2.6c-1-2.4,0.1-5.3,2.6-6.3c2.4-1,5.3,0.1,6.3,2.6C70.2,32.3,69,35.2,66.6,36.2z"/>
			<path class="st1" d="M62.4,46v21.2H27.2V13.6h35.2v3.9h4V6.4C66.4,2.9,63.5,0,60,0H29.6c-3.5,0-6.4,2.9-6.4,6.4v67.2
				c0,3.5,2.9,6.4,6.4,6.4H60c3.5,0,6.4-2.9,6.4-6.4V46H62.4z M41.6,7.2H48c0.4,0,0.8,0.4,0.8,0.8c0,0.4-0.4,0.8-0.8,0.8h-6.4
				c-0.4,0-0.8-0.4-0.8-0.8C40.8,7.6,41.1,7.2,41.6,7.2z M44.5,76.2c-1.8,0-3.2-1.4-3.2-3.2c0-1.8,1.4-3.2,3.2-3.2
				c1.8,0,3.2,1.4,3.2,3.2C47.7,74.8,46.3,76.2,44.5,76.2z"/>
		</g>
		<rect y="20.4" class="st1" width="19.2" height="4"/>
		<rect x="4.8" y="28.4" class="st0" width="14.4" height="4"/>
		<rect x="14.4" y="36.4" class="st0" width="4.8" height="4"/>
	</g>
</g>
</svg>
