<?xml version="1.0" encoding="utf-8"?>
<!-- Generator: Adobe Illustrator 19.2.1, SVG Export Plug-In . SVG Version: 6.00 Build 0)  -->
<svg version="1.1" id="Слой_1" xmlns="http://www.w3.org/2000/svg" xmlns:xlink="http://www.w3.org/1999/xlink" x="0px" y="0px"
	 width="11px" height="16px" viewBox="0 0 11 16" style="enable-background:new 0 0 11 16;" xml:space="preserve">
<style type="text/css">
	.st0{fill:#A5A5A6;}
</style>
<path id="tag" class="st0" d="M10,16c-0.6,0-1-0.4-1-1V3c0-0.6-0.4-1-1-1H3C2.4,2,2,2.5,2,3v12c0,0.6-0.4,1-1,1s-1-0.4-1-1V2
	c0-1.1,0.9-2,2-2h7c1.1,0,2,0.9,2,2v13C11,15.6,10.6,16,10,16z M9,15.9l-3.5-3.5L2,15.9v-2.9l2.8-2.8c0.4-0.4,1-0.4,1.4,0L9,13.1
	V15.9z"/>
</svg>
